<?xml version="1.0" standalone="no"?>
<!DOCTYPE svg PUBLIC "-//W3C//DTD SVG 20010904//EN"
 "http://www.w3.org/TR/2001/REC-SVG-20010904/DTD/svg10.dtd">
<svg version="1.0" xmlns="http://www.w3.org/2000/svg"
 width="1500.000000pt" height="1500.000000pt" viewBox="0 0 1500.000000 1500.000000"
 preserveAspectRatio="xMidYMid meet">
<metadata>
Created by potrace 1.14, written by Peter Selinger 2001-2017
</metadata>
<g transform="translate(0.000000,1500.000000) scale(0.100000,-0.100000)"
fill="#000000" stroke="none">
<path d="M8727 12844 c-1 -1 -87 -5 -192 -9 -104 -4 -206 -8 -225 -10 -19 -2
-78 -6 -130 -10 -115 -8 -176 -14 -325 -31 -114 -13 -248 -30 -304 -39 -14 -3
-75 -12 -135 -20 -306 -45 -851 -167 -1206 -272 -744 -218 -1531 -559 -2122
-919 -51 -31 -109 -65 -128 -76 -59 -34 -369 -241 -487 -326 -94 -67 -191
-127 -318 -196 -18 -10 -227 -136 -279 -169 -80 -50 -341 -226 -431 -290 -404
-292 -714 -565 -1100 -972 -60 -63 -235 -271 -323 -385 -45 -58 -86 -110 -90
-115 -5 -6 -17 -24 -28 -40 -10 -17 -21 -32 -24 -35 -11 -9 -114 -163 -175
-261 -33 -52 -65 -104 -72 -115 -81 -130 -230 -422 -306 -600 -43 -103 -114
-289 -122 -324 -3 -8 -11 -35 -20 -58 -9 -24 -27 -85 -40 -135 -13 -51 -31
-117 -39 -147 -8 -30 -17 -68 -19 -85 -3 -16 -10 -50 -16 -75 -10 -48 -16 -79
-26 -145 -3 -23 -7 -51 -10 -64 -2 -13 -7 -52 -11 -85 -3 -34 -9 -97 -14 -141
-8 -83 -6 -591 3 -635 3 -14 8 -47 11 -75 11 -92 22 -170 31 -215 62 -308 146
-578 253 -811 16 -35 32 -71 36 -79 8 -19 92 -178 131 -245 27 -49 187 -295
211 -325 100 -126 222 -274 254 -310 311 -339 645 -611 1059 -860 244 -146
581 -314 816 -405 39 -15 84 -33 100 -40 25 -11 64 -25 85 -30 3 -1 12 -4 20
-8 81 -31 381 -129 438 -142 9 -2 42 -11 72 -20 30 -9 66 -18 79 -21 14 -3 27
-7 31 -9 3 -2 58 -16 121 -30 63 -15 121 -28 129 -30 8 -2 61 -13 117 -24 56
-12 108 -23 115 -26 7 -2 29 -6 48 -9 19 -3 91 -14 160 -25 69 -11 148 -23
175 -26 28 -4 77 -10 110 -15 33 -5 92 -12 130 -15 39 -3 86 -8 105 -10 19 -3
73 -7 120 -10 47 -4 110 -8 140 -11 30 -3 208 -7 395 -9 339 -5 460 -9 545
-19 25 -3 72 -8 105 -11 33 -3 83 -7 110 -10 188 -18 416 -27 690 -27 217 -1
563 9 640 17 17 2 71 6 120 10 144 11 243 21 445 45 85 11 211 28 280 39 69
11 141 22 160 25 70 9 410 78 575 117 198 46 440 112 645 175 269 84 455 150
706 249 446 177 905 402 1284 630 52 32 108 65 124 74 163 93 619 416 841 595
899 726 1571 1609 1927 2531 44 115 152 447 162 500 2 11 15 70 29 130 36 154
63 310 73 410 2 28 6 59 9 70 27 129 27 708 0 885 -2 14 -7 50 -10 80 -4 30
-8 69 -11 85 -29 236 -138 618 -260 912 -30 72 -57 149 -60 170 -2 21 -6 45
-9 53 -2 8 -7 35 -10 60 -37 265 -159 639 -292 899 -218 423 -527 716 -956
904 -209 93 -571 206 -800 251 -298 59 -324 66 -445 121 -383 174 -854 332
-1292 434 -194 44 -181 42 -370 77 -158 29 -169 31 -235 40 -27 3 -59 8 -70
10 -11 2 -92 13 -180 24 -140 17 -222 25 -465 45 -142 11 -773 27 -783 19z"/>
</g>
</svg>
